<svg width="800" height="800" viewBox="0 0 800 800" fill="none" xmlns="http://www.w3.org/2000/svg">
<path d="M341.29 463.031H432.141L409.606 559.453H304.767L341.29 463.031Z" fill="#D90429"/>
<path d="M297.734 398.75H362.016L344.088 463.031H275.82L297.734 398.75Z" fill="#D90429"/>
<path d="M416.16 328.625H465.742L453.245 382.68H397.168L416.16 328.625Z" fill="#D90429"/>
<path d="M522.719 188.375H557.781L547.603 220.516H511.031L522.719 188.375Z" fill="#D90429"/>
<path d="M562.895 166.948L587 165L580.002 188.375H554.859L562.895 166.948Z" fill="#D90429"/>
<path d="M389.286 284.797H429.219L418.563 328.625H374.677L389.286 284.797Z" fill="#D90429"/>
<path d="M237.836 559.453H312.344L293.458 635.422H213L237.836 559.453Z" fill="#D90429"/>
<path d="M451.133 381.219H527.102L511.631 463.031H426.297L451.133 381.219Z" fill="#D90429"/>
<path d="M537.328 334.469H585.539L573.919 381.219H522.719L537.328 334.469Z" fill="#D90429"/>
</svg>
